<mxfile host="app.diagrams.net" modified="2023-12-30T04:39:02.897Z" agent="Mozilla/5.0 (Windows NT 10.0; Win64; x64) AppleWebKit/537.36 (KHTML, like Gecko) Chrome/120.0.0.0 Safari/537.36 Edg/120.0.0.0" etag="hccFZm9sdHw3okfS0_e2" version="22.1.16" type="github">
  <diagram name="Page-1" id="l2GUgNh9zmjY5Cf-5sg_">
    <mxGraphModel dx="1319" dy="966" grid="1" gridSize="10" guides="1" tooltips="1" connect="1" arrows="1" fold="1" page="1" pageScale="1" pageWidth="850" pageHeight="1100" math="0" shadow="0">
      <root>
        <mxCell id="0" />
        <mxCell id="1" parent="0" />
        <mxCell id="HjP3gKy7EO0pupKiK2Ov-1" value="&lt;b&gt;&lt;font style=&quot;font-size: 15px;&quot;&gt;attn&lt;/font&gt;&lt;/b&gt;" style="rounded=0;whiteSpace=wrap;html=1;fillColor=#dae8fc;strokeColor=#6c8ebf;" vertex="1" parent="1">
          <mxGeometry x="120" y="250" width="250" height="50" as="geometry" />
        </mxCell>
        <mxCell id="HjP3gKy7EO0pupKiK2Ov-3" value="&lt;font style=&quot;font-size: 15px;&quot;&gt;&lt;b&gt;V&lt;/b&gt;&lt;/font&gt;" style="rounded=0;whiteSpace=wrap;html=1;fillColor=#fff2cc;strokeColor=#d6b656;" vertex="1" parent="1">
          <mxGeometry x="475" y="250" width="150" height="250" as="geometry" />
        </mxCell>
        <mxCell id="HjP3gKy7EO0pupKiK2Ov-6" value="" style="shape=curlyBracket;whiteSpace=wrap;html=1;rounded=1;flipH=1;labelPosition=right;verticalLabelPosition=middle;align=left;verticalAlign=middle;fontFamily=Helvetica;fontSize=12;fontColor=default;fillColor=none;gradientColor=none;rotation=90;" vertex="1" parent="1">
          <mxGeometry x="235" y="210" width="20" height="220" as="geometry" />
        </mxCell>
        <mxCell id="HjP3gKy7EO0pupKiK2Ov-7" value="&lt;font style=&quot;font-size: 15px;&quot;&gt;&lt;b&gt;N&lt;/b&gt;&lt;/font&gt;" style="text;html=1;strokeColor=none;fillColor=none;align=center;verticalAlign=middle;whiteSpace=wrap;rounded=0;" vertex="1" parent="1">
          <mxGeometry x="222.5" y="330" width="45" height="30" as="geometry" />
        </mxCell>
        <mxCell id="HjP3gKy7EO0pupKiK2Ov-8" value="&lt;font style=&quot;font-size: 15px;&quot;&gt;&lt;b&gt;N&lt;/b&gt;&lt;/font&gt;" style="text;html=1;strokeColor=none;fillColor=none;align=center;verticalAlign=middle;whiteSpace=wrap;rounded=0;" vertex="1" parent="1">
          <mxGeometry x="410" y="365" width="45" height="30" as="geometry" />
        </mxCell>
        <mxCell id="HjP3gKy7EO0pupKiK2Ov-9" value="" style="shape=curlyBracket;whiteSpace=wrap;html=1;rounded=1;flipH=1;labelPosition=right;verticalLabelPosition=middle;align=left;verticalAlign=middle;fontFamily=Helvetica;fontSize=12;fontColor=default;fillColor=none;gradientColor=none;rotation=-180;" vertex="1" parent="1">
          <mxGeometry x="445" y="270" width="20" height="220" as="geometry" />
        </mxCell>
        <mxCell id="HjP3gKy7EO0pupKiK2Ov-10" value="&lt;font color=&quot;#b3b3b3&quot; style=&quot;font-size: 15px;&quot;&gt;&lt;b style=&quot;&quot;&gt;d&lt;/b&gt;&lt;/font&gt;" style="text;html=1;strokeColor=none;fillColor=none;align=center;verticalAlign=middle;whiteSpace=wrap;rounded=0;" vertex="1" parent="1">
          <mxGeometry x="527.5" y="190" width="45" height="20" as="geometry" />
        </mxCell>
        <mxCell id="HjP3gKy7EO0pupKiK2Ov-11" value="" style="shape=curlyBracket;whiteSpace=wrap;html=1;rounded=1;flipH=1;labelPosition=right;verticalLabelPosition=middle;align=left;verticalAlign=middle;fontFamily=Helvetica;fontSize=12;fontColor=default;fillColor=none;gradientColor=none;rotation=-90;" vertex="1" parent="1">
          <mxGeometry x="540" y="160" width="20" height="140" as="geometry" />
        </mxCell>
      </root>
    </mxGraphModel>
  </diagram>
</mxfile>
